<?xml version="1.0" encoding="utf-8"?>
<!-- Generator: Adobe Illustrator 27.6.1, SVG Export Plug-In . SVG Version: 6.00 Build 0)  -->
<svg version="1.1" xmlns="http://www.w3.org/2000/svg" xmlns:xlink="http://www.w3.org/1999/xlink" x="0px" y="0px"
	 viewBox="0 0 700 350" style="enable-background:new 0 0 700 350;" xml:space="preserve">
<style type="text/css">
	.st0{display:none;}
	.st1{display:inline;fill:#FFFFFF;}
	.st2{font-family:'ArtifaktElement-BoldItalic';}
	.st3{font-size:120px;}
	.st4{display:inline;fill:#00061B;}
	.st5{fill:#EC5E29;}
	.st6{fill:#F2F2F2;}
	.st7{fill:none;stroke:#EC5E29;stroke-width:20;stroke-miterlimit:10;}
</style>
<g id="Layer_8" class="st0">
	<text transform="matrix(1 0 0 1 121.0272 208.4666)" class="st1 st2 st3">/viatora</text>
	<rect y="-184.25" class="st4" width="700" height="700"/>
</g>
<g id="Layer_3">
	<path class="st5" d="M171.1,1.75l347.23,0L344.71,348.97L171.1,1.75z M350.17,292.78L480.69,31.75H219.96L350.17,292.78z"/>
</g>
<g id="Layer_9">
	<g>
		<path class="st6" d="M56.67,204.47L19,117.81H42.9l24.96,62.17l25.31-62.17h23.73l-38.14,86.66H56.67z"/>
		<path class="st6" d="M122.06,204.47v-86.66h21.74v86.66H122.06z"/>
		<path class="st6" d="M149.54,204.47l41.07-86.66h20.86l39.49,86.66h-24.14l-7.91-18.34h-38.14l-7.79,18.34H149.54z M188.22,168.61
			h22.91l-11.66-26.78L188.22,168.61z"/>
		<path class="st6" d="M341.2,135.33v69.14h-21.56v-69.14h-29.65v-17.52h80.86v17.52H341.2z"/>
		<path class="st6" d="M375.31,161.17c0-13.87,4.71-24.94,14.12-33.22c9.41-8.28,22.03-12.42,37.85-12.42s28.42,4.14,37.79,12.42
			c9.38,8.28,14.06,19.36,14.06,33.22c0,13.87-4.69,24.93-14.06,33.19s-21.97,12.39-37.79,12.39s-28.44-4.13-37.85-12.39
			C380.01,186.1,375.31,175.03,375.31,161.17z M427.28,188.88c8.67,0,15.5-2.47,20.48-7.41c4.98-4.94,7.47-11.71,7.47-20.3
			c0-8.67-2.49-15.48-7.47-20.42c-4.98-4.94-11.81-7.41-20.48-7.41s-15.52,2.48-20.54,7.44c-5.02,4.96-7.53,11.76-7.53,20.39
			c0,8.59,2.5,15.36,7.5,20.3C411.71,186.41,418.57,188.88,427.28,188.88z"/>
		<path class="st6" d="M494.02,204.47v-86.66h53.26c11.56,0,20.08,1.9,25.55,5.68c5.47,3.79,8.2,9.67,8.2,17.64
			c0,5.08-1.28,9.57-3.84,13.48c-2.56,3.91-6.08,6.72-10.58,8.44c3.83,1.6,6.51,3.58,8.06,5.95c1.54,2.36,2.45,6.53,2.72,12.51
			c0.04,0.59,0.08,1.39,0.12,2.4c0.47,10.74,1.99,17.6,4.57,20.57h-24.38c-0.59-0.94-1.03-1.97-1.32-3.11
			c-0.29-1.13-0.44-2.34-0.44-3.63v-5.86c0-7.97-1.03-13.18-3.08-15.64s-6.06-3.69-12.04-3.69h-0.53h-24.55v31.93H494.02z
			 M515.76,154.78h24.55c6.48,0,11.04-0.79,13.68-2.37s3.96-4.19,3.96-7.82c0-3.52-1.23-5.98-3.69-7.38s-7.42-2.11-14.88-2.11
			h-23.61V154.78z"/>
		<path class="st6" d="M582.79,204.47l41.07-86.66h20.86l39.49,86.66h-24.14l-7.91-18.34h-38.14l-7.79,18.34H582.79z M621.46,168.61
			h22.91l-11.66-26.78L621.46,168.61z"/>
	</g>
</g>
<g id="Layer_7">
</g>
<g id="Layer_5">
	<line class="st7" x1="418.54" y1="178.42" x2="499.05" y2="17.39"/>
</g>
<g id="Layer_6">
</g>
</svg>
