<?xml version="1.0" encoding="utf-8"?>
<!-- Generator: Adobe Illustrator 27.6.1, SVG Export Plug-In . SVG Version: 6.00 Build 0)  -->
<svg version="1.1" id="Layer_1" xmlns="http://www.w3.org/2000/svg" xmlns:xlink="http://www.w3.org/1999/xlink" x="0px" y="0px"
	 viewBox="0 0 16 16" style="enable-background:new 0 0 16 16;" xml:space="preserve">
<style type="text/css">
	.st0{fill:#99CC11;}
	.st1{fill:#FFAA22;}
	.st2{fill:#CC1111;}
	.st3{fill:#4488EE;}
</style>
<g>
	<path class="st0" d="M15.4,8.82v2.79c0,0.19-0.16,0.44-0.35,0.55l-2.79,1.61c-0.19,0.11-0.35,0.05-0.35-0.15v-2.79
		c0-0.19,0.16-0.44,0.35-0.55l2.79-1.61C15.24,8.56,15.4,8.63,15.4,8.82z"/>
</g>
<g>
	<path class="st1" d="M15.4,5.05v2.79c0,0.19-0.16,0.44-0.35,0.55L12.26,10c-0.19,0.11-0.35,0.05-0.35-0.15V7.06
		c0-0.19,0.16-0.44,0.35-0.55l2.79-1.61C15.24,4.79,15.4,4.86,15.4,5.05z"/>
</g>
<g>
	<path class="st2" d="M11.63,7.23v2.79c0,0.19-0.16,0.44-0.35,0.55l-2.79,1.61c-0.19,0.11-0.35,0.05-0.35-0.15V9.24
		c0-0.19,0.16-0.44,0.35-0.55l2.79-1.61C11.47,6.97,11.63,7.03,11.63,7.23z"/>
</g>
<g>
	<path class="st3" d="M11.63,10.99v2.79c0,0.19-0.16,0.44-0.35,0.55l-2.79,1.61c-0.19,0.11-0.35,0.05-0.35-0.15v-2.79
		c0-0.19,0.16-0.44,0.35-0.55l2.79-1.61C11.47,10.73,11.63,10.8,11.63,10.99z"/>
</g>
<g>
	<path class="st3" d="M0.6,8.82v2.79c0,0.19,0.16,0.44,0.35,0.55l2.79,1.61c0.19,0.11,0.35,0.05,0.35-0.15v-2.79
		c0-0.19-0.16-0.44-0.35-0.55L0.95,8.67C0.76,8.56,0.6,8.63,0.6,8.82z"/>
</g>
<g>
	<path class="st2" d="M0.6,5.05v2.79c0,0.19,0.16,0.44,0.35,0.55L3.74,10c0.19,0.11,0.35,0.05,0.35-0.15V7.06
		c0-0.19-0.16-0.44-0.35-0.55L0.95,4.9C0.76,4.79,0.6,4.86,0.6,5.05z"/>
</g>
<g>
	<path class="st2" d="M4.37,7.23v2.79c0,0.19,0.16,0.44,0.35,0.55l2.79,1.61c0.19,0.11,0.35,0.05,0.35-0.15V9.24
		c0-0.19-0.16-0.44-0.35-0.55L4.72,7.08C4.53,6.97,4.37,7.03,4.37,7.23z"/>
</g>
<g>
	<path class="st3" d="M4.37,10.99v2.79c0,0.19,0.16,0.44,0.35,0.55l2.79,1.61c0.19,0.11,0.35,0.05,0.35-0.15v-2.79
		c0-0.19-0.16-0.44-0.35-0.55l-2.79-1.61C4.53,10.73,4.37,10.8,4.37,10.99z"/>
</g>
<g>
	<path class="st2" d="M4.87,6.88l2.95,1.7c0.11,0.06,0.25,0.06,0.36,0l2.95-1.7c0.24-0.14,0.24-0.48,0-0.62l-2.95-1.7
		c-0.11-0.06-0.25-0.06-0.36,0l-2.95,1.7C4.63,6.41,4.63,6.75,4.87,6.88z"/>
</g>
<g>
	<path class="st2" d="M0.96,4.63l2.95,1.7c0.11,0.06,0.25,0.06,0.36,0l2.95-1.7c0.24-0.14,0.24-0.48,0-0.62l-2.95-1.7
		c-0.11-0.06-0.25-0.06-0.36,0l-2.95,1.7C0.72,4.15,0.72,4.5,0.96,4.63z"/>
</g>
<g>
	<path class="st1" d="M8.7,4.63l2.95,1.7c0.11,0.06,0.25,0.06,0.36,0l2.95-1.7c0.24-0.14,0.24-0.48,0-0.62l-2.95-1.7
		c-0.11-0.06-0.25-0.06-0.36,0L8.7,4.02C8.46,4.15,8.46,4.5,8.7,4.63z"/>
</g>
<g>
	<path class="st1" d="M4.83,2.37l2.95,1.7c0.11,0.06,0.25,0.06,0.36,0l2.95-1.7c0.24-0.14,0.24-0.48,0-0.62l-2.95-1.7
		c-0.11-0.06-0.25-0.06-0.36,0l-2.95,1.7C4.6,1.89,4.6,2.23,4.83,2.37z"/>
</g>
</svg>
